<svg xmlns="http://www.w3.org/2000/svg" viewBox="0 0 82 82">
<title>Facebook</title>
<g fill="#ffffff">
<path
   d="M41,82A41,41,0,1,1,82,41,41,41,0,0,1,41,82ZM41,2A39,39,0,1,0,80,41,39,39,0,0,0,41,2Z"
/>
<path
   d="M32.32,34.9H36V31.29c0-1.6,0-4.06,1.2-5.58A6.62,6.62,0,0,1,43,23a23.38,23.38,0,0,1,6.67.67l-.93,5.51a12.54,12.54,0,0,0-3-.45c-1.45,0-2.74.52-2.74,2V34.9h5.94l-.41,5.39H43V59H36V40.29H32.32Z"
/>
</g>
<path
   d="m36.52 79.766c-16.847-2.0378-30.455-14.541-33.76-31.019-0.5945-2.9644-0.71462-4.3072-0.70426-7.8726 0.018492-6.3614 1.1656-11.359 3.8825-16.914 1.9745-4.0376 3.9416-6.8517 7.0057-10.022 5.1794-5.3597 11.413-8.9707 18.738-10.854 3.2961-0.8476 8.1285-1.2636 11.812-1.0169 8.1667 0.54699 15.419 3.3625 21.996 8.54 1.5118 1.19 4.9421 4.6661 6.178 6.2605 8.2952 10.702 10.55 24.332 6.139 37.103-0.31097 0.90028-1.1142 2.7593-1.785 4.1312-1.9774 4.044-4.3458 7.3855-7.4085 10.453-4.4274 4.4337-9.8987 7.7662-15.839 9.6471-5.0227 1.5905-11.16 2.1814-16.255 1.5652zm6.4438-30.161v-9.3536h5.5662l0.10446-1.6759c0.05746-0.92172 0.14763-2.1143 0.20038-2.6502l0.09592-0.97433h-5.967v-2.3461c0-2.7405 0.12201-3.1242 1.1406-3.5866 0.77881-0.35359 2.2311-0.39028 3.6532-0.09229 0.53588 0.1123 0.97526 0.16345 0.97639 0.11367 0.0011-0.04978 0.20066-1.2658 0.44338-2.7023l0.44132-2.6118-0.5603-0.14845c-1.8018-0.47741-5.6396-0.715-7.4372-0.46043-1.4411 0.20409-2.6234 0.81266-3.7375 1.9239-1.5119 1.508-1.6601 2.038-1.7684 6.3249l-0.08866 3.5076-3.6635 0.08784v5.2806l3.6635 0.08784 0.0804 18.629h6.8569z"
   stroke-width=".15589"
/>
</svg>
