<svg xmlns="http://www.w3.org/2000/svg" viewBox="0 0 82 82">
<title>Instagram</title>
<g style="fill:#ffffff">
<path
   d="M41,82A41,41,0,1,1,82,41,41,41,0,0,1,41,82ZM41,2A39,39,0,1,0,80,41,39,39,0,0,0,41,2Z"
/>
<path
   d="M52,23H30a7,7,0,0,0-7,7V52a7,7,0,0,0,7,7H52a7,7,0,0,0,7-7V30A7,7,0,0,0,52,23Zm2,4.15h.79v6.1l-6.08,0,0-6.1ZM35.87,37.31A6.32,6.32,0,1,1,34.67,41,6.33,6.33,0,0,1,35.87,37.31ZM55.5,52A3.45,3.45,0,0,1,52,55.48H30A3.45,3.45,0,0,1,26.51,52V37.31h5.37a9.84,9.84,0,1,0,18.24,0H55.5Z"
/>
</g>
<g style="stroke-width:0.17372881">
<path
   d="M 35.853942,79.699285 C 23.915932,78.016198 13.621337,71.199067 7.4468827,60.887993 1.3390732,50.688213 0.29604448,38.109621 4.6280491,26.893767 6.5992954,21.790078 9.5429266,17.304242 13.519368,13.344178 16.763768,10.113139 19.851748,7.9284522 24.093931,5.8628741 32.533237,1.7536578 42.273072,0.88578463 51.489535,3.4217742 66.045965,7.4271018 76.961833,19.63388 79.552892,34.803901 c 0.381717,2.234852 0.530208,7.937172 0.266974,10.252135 -0.858519,7.550058 -3.723055,14.513934 -8.359175,20.321714 -1.354121,1.69634 -4.76304,5.079085 -6.420308,6.371013 -4.945014,3.8549 -10.930517,6.512516 -17.372882,7.713715 -2.653765,0.494803 -9.071189,0.623442 -11.813559,0.236807 z M 54.821586,58.313151 c 1.614952,-0.765096 2.621125,-1.750107 3.402595,-3.331033 L 58.87301,53.669531 58.92209,41.418717 C 58.96968,29.540374 58.96047,29.132697 58.619427,28.009874 57.978998,25.901402 56.516968,24.310222 54.442929,23.464437 53.490266,23.075944 53.452497,23.074629 41.760726,23.02275 29.233169,22.96716 28.515477,23.0049 26.881294,23.805079 c -1.037378,0.507954 -2.326583,1.714154 -2.935642,2.746632 -0.910556,1.543575 -0.942294,2.025499 -0.945071,14.349996 -0.0016,6.984562 0.06565,11.761354 0.173592,12.334746 0.496666,2.63839 2.627372,4.918511 5.165293,5.527507 0.361347,0.08671 6.152868,0.14367 12.986937,0.127729 l 12.334746,-0.02877 z"
/>
<path
   d="M 28.379306,55.084318 C 27.927642,54.855873 27.388912,54.38045 27.08296,53.940309 L 26.55945,53.18719 26.51097,45.210436 26.46249,37.233682 h 2.718109 2.71811 l -0.114012,0.39089 c -0.720787,2.471216 -0.743792,4.470978 -0.07437,6.464882 1.310909,3.90462 5.149444,6.695076 9.209708,6.695076 1.643293,0 2.791148,-0.273202 4.42567,-1.053359 3.148371,-1.502715 5.170559,-4.559668 5.394084,-8.154268 0.08441,-1.357456 -0.134628,-2.937703 -0.559876,-4.039195 -0.108708,-0.281575 0.08284,-0.304026 2.594009,-0.304026 h 2.711384 v 7.826424 c 0,6.863402 -0.03457,7.894838 -0.280914,8.382415 -0.396514,0.784785 -0.919648,1.31907 -1.666614,1.702136 -0.615021,0.315402 -1.188609,0.330551 -12.515096,0.330551 H 29.152141 Z"
/>
<path
   d="m 39.037379,47.069835 c -1.607867,-0.524831 -3.057948,-1.849444 -3.826103,-3.495051 -0.42218,-0.904428 -0.485714,-1.249291 -0.48009,-2.605932 0.0051,-1.23685 0.0875,-1.742173 0.394212,-2.418365 2.262013,-4.986926 9.143124,-5.174575 11.535691,-0.314581 0.525803,1.068058 0.572031,1.295909 0.571362,2.816157 -6.43e-4,1.447112 -0.05982,1.774465 -0.472966,2.616226 -0.600902,1.224295 -1.854427,2.480315 -3.067911,3.074017 -1.14074,0.558112 -3.449933,0.720617 -4.654195,0.327529 z"
/>
<path
   d="m 48.709874,30.197665 v -3.040254 h 3.040254 3.040255 v 3.040254 3.040255 h -3.040255 -3.040254 z"
/>
</g>
</svg>
