<svg xmlns="http://www.w3.org/2000/svg" viewBox="0 0 82 82">
<title>Pintrest</title>
<g style="fill:#f2f2f2">
<path
   d="M41,82A41,41,0,1,1,82,41,41,41,0,0,1,41,82ZM41,2A39,39,0,1,0,80,41,39,39,0,0,0,41,2Z"
/>
<path
   d="M41,22.89a18,18,0,0,0-7.21,34.49,15.84,15.84,0,0,1,.31-4.13l2.31-9.81a7,7,0,0,1-.57-2.85c0-2.67,1.54-4.66,3.46-4.66a2.41,2.41,0,0,1,2.42,2.7c0,1.65-1,4.11-1.59,6.39A2.78,2.78,0,0,0,43,48.49c3.4,0,5.7-4.38,5.7-9.57C48.67,35,46,32,41.2,32a8.51,8.51,0,0,0-8.84,8.62,5.21,5.21,0,0,0,1.18,3.53.88.88,0,0,1,.26,1c-.09.33-.28,1.13-.37,1.44a.62.62,0,0,1-.9.45c-2.51-1-3.68-3.78-3.68-6.88,0-5.11,4.3-11.25,12.84-11.25,6.86,0,11.37,5,11.37,10.31,0,7.06-3.92,12.34-9.69,12.34A5.15,5.15,0,0,1,39,49.35s-1,4.15-1.26,5a15.06,15.06,0,0,1-1.81,3.85A18,18,0,1,0,41,22.89"
/>
</g>
<path
   style="stroke-width:0.34745762"
   d="M 34.232127,79.467784 C 17.558519,76.30772 4.9475694,63.414829 2.4511401,46.976271 1.2441453,39.028418 2.5503734,30.388798 5.9832572,23.61423 8.5262384,18.595826 13.049512,13.184762 17.563606,9.7609854 20.541949,7.5020205 26.713358,4.4623323 30.489804,3.394268 c 17.772081,-5.026345 37.006231,3.4365009 45.269753,19.918267 3.021912,6.027265 4.14969,10.786203 4.166892,17.583228 0.02415,9.540352 -2.78686,17.467855 -8.85059,24.960153 -4.773859,5.898549 -12.765517,10.994213 -20.3123,12.951598 -4.374033,1.134477 -12.348755,1.452992 -16.531432,0.66027 z M 44.998171,58.254822 c 4.334429,-1.021699 8.247573,-3.71674 10.64837,-7.333691 3.987546,-6.007493 4.075279,-13.820568 0.222133,-19.782134 -3.178483,-4.917731 -9.128347,-8.137302 -15.03798,-8.137302 -7.932264,0 -15.334825,5.861283 -17.155007,13.583185 -1.448823,6.14646 0.22694,12.414578 4.440008,16.607658 1.649898,1.642068 4.606594,3.854935 5.155514,3.858517 0.125393,6.95e-4 0.337465,-0.819381 0.471269,-1.822665 0.133804,-1.003284 0.763362,-4.013136 1.399018,-6.688559 0.991453,-4.172953 1.106604,-5.094664 0.810075,-6.484272 -0.461919,-2.164682 0.08483,-4.139986 1.46809,-5.303923 1.347399,-1.13376 2.536722,-1.135314 3.667245,-0.0048 1.019757,1.019757 0.978545,2.089422 -0.234159,6.07768 -0.888598,2.922358 -0.862448,3.660073 0.166207,4.688725 1.396957,1.39696 3.07968,1.181248 4.887457,-0.626532 1.75808,-1.758073 2.598674,-4.169551 2.598674,-7.455006 0,-2.709196 -0.558271,-4.119418 -2.202155,-5.56277 -3.225811,-2.832296 -8.614889,-2.263359 -11.783594,1.24402 -2.064202,2.284824 -2.650234,6.097393 -1.282161,8.341392 0.742891,1.218538 0.666669,3.077321 -0.14738,3.594033 -0.439113,0.278727 -1.8173,-0.533747 -2.729966,-1.609376 -1.036748,-1.221869 -1.76521,-4.249441 -1.501682,-6.241165 0.766206,-5.790914 5.518918,-9.877925 11.885398,-10.220638 5.20306,-0.280085 9.030514,1.709267 11.144154,5.792269 0.982986,1.898874 1.134335,2.536354 1.134335,4.777779 0,4.0057 -1.496236,7.746321 -3.986996,9.967576 -2.375961,2.118876 -6.424773,2.628076 -8.687456,1.092573 -0.717931,-0.487198 -1.341829,-0.838999 -1.386443,-0.781779 -0.04461,0.05722 -0.349809,1.198531 -0.678216,2.536242 -0.328403,1.337712 -0.90249,3.124492 -1.275743,3.970625 -0.373256,0.846128 -0.557885,1.653759 -0.410285,1.794729 0.774932,0.740144 5.498302,0.811884 8.401276,0.127604 z"
/>
</svg>
